<svg width="880" height="285" viewBox="0 0 880 285" fill="none" xmlns="http://www.w3.org/2000/svg">
<path d="M298.968 156.016C298.968 171.504 288.984 183.408 267.224 183.408C251.224 183.408 239.832 177.008 232.92 170.352L243.032 159.344C249.944 165.232 257.496 168.688 267.096 168.688C279.512 168.688 282.968 162.8 282.968 157.168C282.968 135.792 233.176 148.592 233.176 116.72C233.176 101.744 244.056 90.992 264.28 90.992C278.104 90.992 289.496 96.112 297.56 103.024L288.216 114.672C280.152 108.144 272.344 105.712 264.408 105.712C253.656 105.712 249.176 110.064 249.176 115.44C249.176 133.488 298.968 121.584 298.968 156.016ZM335.819 117.104C355.659 117.104 368.971 130.416 368.971 150.256V182H353.611V175.856C350.539 179.824 344.011 183.152 334.667 183.152C316.107 183.152 302.795 169.84 302.795 150C302.795 130.288 316.107 117.104 335.819 117.104ZM353.611 150.128C353.611 138.224 346.571 131.184 335.947 131.184C325.195 131.184 318.155 138.224 318.155 150.128C318.155 162.032 325.195 169.072 335.947 169.072C346.571 169.072 353.611 162.032 353.611 150.128ZM376.59 182V92.4H391.95V182H376.59ZM414.822 141.04H446.95C444.262 134.768 438.502 131.184 430.822 131.184C423.27 131.184 417.51 134.768 414.822 141.04ZM430.822 169.072C437.222 169.072 442.214 166.64 445.286 162.16H462.054C457.83 175.088 446.438 183.152 430.95 183.152C411.11 183.152 397.798 169.84 397.798 150C397.798 130.288 411.11 117.104 430.95 117.104C450.79 117.104 463.974 130.288 463.974 150C463.974 151.792 463.846 153.456 463.718 155.12H413.67C415.334 163.952 421.734 169.072 430.822 169.072ZM483.679 135.28C483.679 144.624 518.495 138.736 518.495 162.672C518.495 175.728 508.127 182.768 493.535 182.768C479.967 182.768 471.263 176.624 467.295 173.04L475.487 161.008C480.863 166.128 487.647 168.688 493.919 168.688C499.167 168.688 503.135 166.896 503.135 163.184C503.135 152.176 468.319 158.96 468.319 135.536C468.319 123.76 477.151 116.976 491.615 116.976C504.287 116.976 512.607 122.096 518.239 126.704L510.047 138.608C503.263 132.976 496.607 131.056 491.359 131.056C486.367 131.056 483.679 132.72 483.679 135.28ZM556.215 182V92.4H596.791C616.375 92.4 629.431 105.456 629.431 125.04C629.431 145.264 616.375 158.32 596.791 158.32H572.215V182H556.215ZM595.383 143.6C606.263 143.6 613.431 136.432 613.431 125.552C613.431 114.288 606.263 107.12 595.383 107.12H572.215V143.6H595.383ZM631.548 150C631.548 130.288 644.86 117.104 664.7 117.104C684.54 117.104 697.724 130.288 697.724 150C697.724 169.84 684.54 183.152 664.7 183.152C644.86 183.152 631.548 169.84 631.548 150ZM646.908 150.128C646.908 162.032 653.948 169.072 664.572 169.072C675.324 169.072 682.364 162.032 682.364 150.128C682.364 138.224 675.324 131.184 664.572 131.184C653.948 131.184 646.908 138.224 646.908 150.128ZM703.447 99.44C703.447 94.832 707.159 90.992 711.895 90.992C716.631 90.992 720.343 94.832 720.343 99.44C720.343 104.304 716.631 108.016 711.895 108.016C707.159 108.016 703.447 104.304 703.447 99.44ZM704.215 182V118H719.575V182H704.215ZM756.03 116.848C777.15 116.848 785.47 132.72 785.47 143.856V182H770.11V144.24C770.11 135.152 763.454 131.056 756.03 131.056C748.606 131.056 741.95 135.152 741.95 144.24V182H726.59V143.856C726.59 132.72 734.91 116.848 756.03 116.848ZM824.721 168.816V182.896C803.729 182.896 792.593 172.272 792.593 152.56V92.4H807.953V118H822.545V132.08H807.953V152.432C807.953 164.08 812.689 168.816 824.721 168.816Z" fill="#05091F"/>
<path fill-rule="evenodd" clip-rule="evenodd" d="M112.869 123.814V147.909C112.869 150.316 110.896 152.289 108.488 152.289H91.0065V174.158H108.488C110.902 174.158 112.869 176.13 112.869 178.538V196.02H169.253C193.348 196.02 212.997 176.37 212.997 152.276V144.372H199.837C199.448 152.354 196.015 159.596 190.668 164.949L190.687 164.969C185.022 170.634 177.196 174.151 168.579 174.151H117.249C114.835 174.151 112.869 172.185 112.869 169.764V156.663C112.869 154.249 114.835 152.282 117.249 152.282H168.579C171.161 152.282 173.517 151.218 175.224 149.505C176.937 147.792 178.001 145.436 178.001 142.86C178.001 140.284 176.937 137.928 175.224 136.215C173.51 134.502 171.155 133.438 168.579 133.438H151.992H135.406C126.788 133.438 118.962 129.921 113.297 124.255L112.862 123.808L112.869 123.814ZM191.129 121.205V97.111C191.129 94.697 193.095 92.7308 195.509 92.7308H212.991V70.8622H195.509C193.101 70.8622 191.129 68.8959 191.129 66.4819V49H134.744C110.649 49 91 68.6493 91 92.7438V100.648H104.16C104.549 92.6659 107.982 85.424 113.329 80.0704L113.31 80.0509C118.975 74.3858 126.801 70.8686 135.419 70.8686H186.748C189.162 70.8686 191.129 72.8349 191.129 75.2554V88.3571C191.129 90.7711 189.162 92.7373 186.748 92.7373H135.419C132.836 92.7373 130.48 93.8016 128.774 95.5147C127.061 97.2279 125.996 99.5834 125.996 102.16C125.996 104.736 127.061 107.091 128.774 108.805C130.487 110.518 132.842 111.582 135.419 111.582H152.005H168.592C177.209 111.582 185.035 115.099 190.7 120.764L191.135 121.212L191.129 121.205Z" fill="url(#paint0_linear_8346_86)"/>
<defs>
<linearGradient id="paint0_linear_8346_86" x1="151.999" y1="49" x2="233.964" y2="194.851" gradientUnits="userSpaceOnUse">
<stop stop-color="#00B7FF"/>
<stop offset="1" stop-color="#0045E5"/>
</linearGradient>
</defs>
</svg>
